<svg width="120" height="42" fill="none" xmlns="http://www.w3.org/2000/svg"><path d="M119.866 0c-11.336 0-20.54 9.197-20.54 20.526h20.54V0zM78.785 0c0 11.33 9.205 20.526 20.541 20.526V0h-20.54z" fill="#EE3C15"/><path d="M78.785 41.053c11.337 0 20.54-9.198 20.54-20.527h-20.54v20.527z" fill="#EE3C15"/><path d="M1.178 38.401c3.495-.987 5.737-1.784 8.776-8.96l5.13-12.263c1.29-3.113 2.24-4.328 3.532-5.733v-.076h-4.863v.076c.76.873 1.482 3.113.38 5.847l-2.507 5.999-2.28-5.923c-1.026-2.544-.722-5.05-.038-5.923v-.076H0v.076c.836.95 1.368 2.05 2.887 5.695l5.547 13.782C6.84 33.617 3.23 33.579 1.178 33.39v5.01zm26.197-7.973c5.584 0 10.22-4.518 10.22-9.795s-4.636-9.871-10.22-9.871c-5.585 0-10.22 4.594-10.22 9.871s4.635 9.795 10.22 9.795zm0-.721c-2.698 0-3.914-3.72-3.914-9.074 0-5.391 1.178-9.15 3.914-9.15 2.697 0 3.913 3.759 3.913 9.15 0 5.353-1.216 9.074-3.913 9.074zm17.413.418h1.482l5.433-12.947c1.33-3.151 2.241-4.328 3.533-5.733v-.076h-4.75v.076c.609.797 1.445 3.151.229 5.999l-2.394 5.695-2.317-6.037c-.912-2.354-.684-4.784 0-5.657v-.076h-9.46v.076c.987 1.101 1.71 2.392 3 5.695l5.244 12.985zm17.07-3c-1.671 0-2.545-.987-2.545-2.468 0-1.784 1.444-3.303 4.141-4.024v6.113c-.456.265-.988.38-1.596.38zm5.775 3.265c3.23 0 4.56-2.24 5.092-3.493l-.077-.151a2.558 2.558 0 01-1.443.455c-1.216 0-1.634-.797-1.634-1.708v-9.758c0-2.999-1.824-4.973-5.927-4.973-4.141 0-7.105 1.974-8.928 4.214l.152.266c1.71-.722 3.457-1.025 4.939-1.025 2.735 0 3.647 1.025 3.647 3.265v2.354c-4.293.91-9.498 2.695-9.498 6.796 0 2.62 1.976 3.796 4.293 3.796 2.432 0 4.255-1.405 5.32-2.961.341 1.709 1.747 2.923 4.064 2.923z" fill="#2F2C26"/></svg>